<svg width="52" height="78" viewBox="0 0 52 78" fill="none" xmlns="http://www.w3.org/2000/svg"><path d="M51.578 60.528a.41.41 0 0 0 .288-.116.44.44 0 0 0 .03-.614c-.665-.722-1.214-1.646-1.741-2.541-.289-.484-.585-.982-.895-1.445-.7-1.04-1.35-2.13-1.986-3.177-.289-.476-.578-.96-.874-1.437-.88-1.437-1.697-2.96-2.476-4.433-.81-1.517-1.647-3.09-2.564-4.578-.585-.946-1.068-1.978-1.53-2.982-.448-.968-.917-1.971-1.48-2.917-.918-1.531-1.676-2.83-2.376-4.203-3.358-6.621-6.831-13.466-8.506-21.07a.434.434 0 0 0-.513-.332.435.435 0 0 0-.332.513c1.697 7.712 5.192 14.607 8.578 21.272.708 1.394 1.473 2.715 2.404 4.253.55.903.997 1.885 1.438 2.838.476 1.025.96 2.08 1.58 3.076.903 1.465 1.734 3.018 2.535 4.527.794 1.488 1.61 3.026 2.506 4.484.296.477.577.953.866 1.43.643 1.061 1.3 2.166 2.015 3.22.296.44.578.917.866 1.401.55.931 1.12 1.892 1.842 2.679a.435.435 0 0 0 .317.144l.008.008ZM26.84 8.654c.238-.7.455-1.292.505-1.993.029-.339.065-.664.065-1.01 0-.672.036-1.358-.087-2.008-.187-.975-.418-2.101-1.054-2.866-.917-1.105-1.379.873-1.386 1.53-.015 1.416.101 2.78.347 4.174.072.411.433 2.375 1.61 2.18v-.007Z" fill="#F5BC42"/><path d="M26.674 9.102c.08 0 .16 0 .239-.022a.435.435 0 0 0 .339-.289l.029-.086c.238-.693.448-1.293.498-2.015l.022-.238c.021-.267.043-.527.043-.809v-.375c.007-.563.014-1.141-.094-1.719-.188-.974-.426-2.195-1.148-3.061-.44-.535-.852-.535-1.12-.44-.837.295-1.032 1.87-1.032 2.245a23.097 23.097 0 0 0 .354 4.253c.282 1.639.96 2.556 1.87 2.556Zm-.91-8.224s.066.05.174.173c.578.693.787 1.79.96 2.679.094.484.087.996.087 1.538v.383c0 .252-.022.49-.043.736l-.022.246c-.044.541-.195 1.032-.383 1.58-.57-.209-.83-1.516-.88-1.804a22.018 22.018 0 0 1-.34-4.094c0-.506.26-1.322.448-1.43V.878ZM30.428 16.9c1.026-.816 2.21-1.465 2.629-2.73.245-.736.563-1.407.693-2.165.108-.614.116-1.213.108-1.841-.014-.715-.642-.824-1.126-.347-.455.44-.888.967-1.163 1.53-.36.744-.945 1.358-1.227 2.145-.354.99-.318 2.109.087 3.408Z" fill="#F5BC42"/><path d="M30.429 17.334a.403.403 0 0 0 .267-.094c.195-.152.397-.304.592-.455.88-.657 1.798-1.336 2.173-2.484.073-.224.152-.44.239-.65.187-.498.375-1.01.476-1.574.116-.686.123-1.329.109-1.92-.008-.477-.224-.846-.6-.99-.397-.166-.88-.029-1.263.347-.564.548-.982 1.104-1.25 1.653-.144.289-.325.563-.512.86-.275.41-.549.83-.73 1.328-.39 1.076-.36 2.274.08 3.683a.42.42 0 0 0 .289.281.41.41 0 0 0 .13.022v-.007Zm2.91-7.373h.029c.014 0 .057.072.057.21.015.548 0 1.14-.1 1.754-.087.484-.254.939-.434 1.423-.087.224-.166.447-.245.686-.297.888-1.062 1.458-1.87 2.058-.037.021-.066.05-.102.072-.216-.953-.195-1.784.072-2.52.145-.405.383-.766.643-1.148.202-.304.404-.614.57-.953.224-.455.585-.932 1.076-1.416.13-.13.246-.166.304-.166Zm-4.701 11.344c.05-.773-1.993-2.838-3.3-4.044-.765-.707-1.675-.917-2.665-1.119-.498-.1-.989-.159-1.227.383-.289.664.245 1.054.744 1.43 1.191.888 2.433 1.718 3.588 2.664.383.318.787.505 1.22.715.398.188 1.575.91 1.633-.022l.007-.007Z" fill="#F5BC42"/><path d="M28.198 22.2c.159 0 .31-.029.447-.108.174-.101.39-.31.42-.758.057-.96-1.842-2.917-3.445-4.39-.823-.758-1.748-.997-2.867-1.228-.397-.08-1.321-.274-1.711.636-.419.974.361 1.552.874 1.935.426.317.845.62 1.263.924.773.556 1.574 1.134 2.318 1.74.426.347.852.549 1.307.765l.145.073c.339.173.808.411 1.241.411h.008Zm0-.924c0 .065-.015.087-.015.087-.065 0-.36-.116-.83-.354l-.166-.087c-.426-.202-.787-.375-1.134-.657-.765-.628-1.574-1.206-2.361-1.776-.419-.296-.83-.6-1.242-.903-.621-.462-.73-.628-.607-.91.073-.166.138-.252.737-.13 1.018.21 1.79.412 2.455 1.019 2.202 2.021 3.17 3.379 3.163 3.697v.014Zm5.414 3.134c.274.664 1.697-.888 2.159-1.567.115-.166.18-.368.288-.541.181-.275.29-.535.427-.83.252-.557.527-1.062.657-1.669.166-.78.252-2.664-1.084-2.123-.418.174-.924.975-1.148 1.372a17.97 17.97 0 0 0-1.003 2.217c-.354.939-.802 1.906-.296 3.134v.007Z" fill="#F5BC42"/><path d="M33.836 25.002c.938 0 2.281-1.9 2.296-1.92.072-.102.13-.217.18-.333.037-.072.073-.144.116-.216.18-.282.303-.55.426-.824l.18-.397c.21-.44.42-.895.528-1.422.036-.188.36-1.856-.42-2.506-.223-.188-.627-.36-1.256-.1-.585.237-1.148 1.176-1.357 1.566a18.121 18.121 0 0 0-1.033 2.274l-.08.203c-.353.917-.75 1.95-.208 3.249a.668.668 0 0 0 .556.426h.072Zm2.657-6.982c.043 0 .08.007.108.028.21.174.267.968.123 1.661-.087.433-.274.816-.47 1.235l-.158.347c-.152.332-.246.541-.39.772a2.115 2.115 0 0 0-.166.31c-.036.08-.072.16-.123.224-.39.57-1.112 1.3-1.459 1.495-.317-.91-.028-1.66.282-2.455l.08-.21a16.86 16.86 0 0 1 .981-2.165c.311-.57.73-1.098.932-1.185a.766.766 0 0 1 .267-.065l-.007.008Zm-4.347 10.635c-1.076-1.047-2.109-2.26-3.524-2.859-.686-.289-1.48-.455-2.21-.549-.548-.065-1.176-.23-1.458.397-.253.57.05.997.498 1.365.52.433 1.163.722 1.776.997.694.317 1.35.808 2.095.996.303.08 3.047.895 2.816-.347h.007Z" fill="#F5BC42"/><path d="M31.243 29.767c.491 0 .838-.108 1.062-.31.23-.217.325-.527.26-.881a.403.403 0 0 0-.123-.231 21.157 21.157 0 0 1-.57-.57c-.903-.91-1.842-1.856-3.084-2.376-.642-.274-1.43-.47-2.325-.578l-.166-.021c-.512-.073-1.364-.188-1.74.671-.296.664-.086 1.293.614 1.878.556.462 1.213.758 1.848 1.046.268.123.506.253.744.39.455.253.924.513 1.451.65.853.231 1.517.347 2.03.347v-.015Zm.455-.938c-.086.05-.534.223-2.195-.224l-.08-.022c-.418-.108-.822-.332-1.248-.57-.26-.145-.513-.29-.773-.405-.614-.281-1.213-.556-1.682-.938-.513-.42-.462-.657-.376-.852.094-.217.238-.246.83-.166l.174.021c.816.101 1.523.275 2.094.52 1.083.462 1.957 1.343 2.809 2.195.151.152.296.303.447.448v-.007Zm7.386 5.372c.7 0 2.643-2.087 3.264-3.545.26-.607.376-1.286.412-1.943.036-.606-.267-1.314-.903-1.372-.678-.057-1.061.513-1.35 1.07-.52.981-1.076 2.079-1.422 3.133-.253.787-.282 2.65-.008 2.65l.008.007Z" fill="#F5BC42"/><path d="M39.085 34.634c1.032 0 3.069-2.411 3.66-3.812.253-.592.405-1.293.448-2.087.05-.823-.39-1.747-1.292-1.827-1.047-.094-1.553.881-1.77 1.3-.512.975-1.097 2.108-1.45 3.206-.217.671-.362 2.52-.015 2.996a.514.514 0 0 0 .412.217l.007.007Zm2.686-6.86h.058c.382.037.527.564.505.91-.043.7-.166 1.3-.383 1.798-.534 1.264-1.95 2.752-2.614 3.17-.043-.505 0-1.473.167-1.971.332-1.033.888-2.123 1.386-3.069.318-.606.563-.845.874-.845l.007.008Zm-4.765 11.344c.245-.96-4.109-3.047-6.492-2.773-.303.037-1.083.037-1.22.347-.217.47.34.96.679 1.177.628.404 1.357.505 2.058.744.693.23 1.321.541 2.029.707.83.195 2.671.867 2.946-.202Z" fill="#F5BC42"/><path d="M36.017 40.144c.325 0 .62-.058.873-.203.268-.158.455-.404.535-.714.08-.296-.029-.614-.31-.932-1.04-1.191-4.586-2.614-6.65-2.376l-.167.015c-.498.036-1.184.094-1.408.585-.303.679.231 1.336.838 1.718.49.318 1.018.462 1.53.6.21.057.412.115.621.187.246.087.484.174.715.268.426.166.874.339 1.35.454.102.022.224.058.354.094.506.137 1.141.31 1.704.31l.015-.006Zm.563-1.112a.286.286 0 0 1-.123.166c-.375.224-1.379-.05-1.92-.195-.138-.036-.268-.072-.383-.101-.419-.101-.816-.253-1.242-.42-.246-.093-.498-.194-.751-.28-.224-.073-.448-.138-.664-.203-.47-.13-.91-.253-1.293-.498-.332-.21-.57-.506-.52-.636.072-.029.535-.065.686-.079l.195-.014c2.26-.26 5.863 1.653 6.015 2.26Zm6.505 2.44c.932-.592 1.798-1.061 2.484-1.913.26-.325.477-.672.686-1.033.289-.505.448-1.12.585-1.682.094-.369.231-1.127 0-1.473-.26-.39-.867-.333-1.148-.065-.917.888-1.365 2.094-1.92 3.22-.37.744-.65 1.495-.694 2.953l.007-.007Z" fill="#F5BC42"/><path d="M43.086 41.905a.439.439 0 0 0 .23-.065l.39-.245c.81-.506 1.567-.975 2.203-1.762.303-.375.549-.78.722-1.097.332-.578.505-1.279.628-1.798.145-.578.253-1.358-.058-1.82a1.067 1.067 0 0 0-.794-.462 1.281 1.281 0 0 0-1.018.332c-.794.773-1.25 1.74-1.69 2.679-.1.224-.209.44-.317.657-.42.845-.694 1.668-.737 3.134 0 .159.08.31.217.39a.441.441 0 0 0 .216.057h.008Zm3.191-6.383h.044c.079.008.13.036.158.08.058.094.101.484-.065 1.133-.151.6-.296 1.134-.541 1.575-.16.281-.376.65-.643.974-.462.57-1.018.96-1.653 1.365a5.44 5.44 0 0 1 .584-1.942l.325-.672c.426-.91.83-1.762 1.51-2.426a.415.415 0 0 1 .274-.094l.007.007Zm-5.558 10.925c-1.589-.715-3.22-1.711-4.975-1.978-.722-.109-1.416-.26-2.08.13-.88.52.03 1.408.672 1.668.635.252 1.422.223 2.094.325.585.086 1.17.122 1.761.202.513.072 2.484.772 2.528-.347Z" fill="#F5BC42"/><path d="M39.845 47.509c.346 0 .671-.065.917-.253.166-.13.368-.368.383-.794a.448.448 0 0 0-.253-.412 33.608 33.608 0 0 1-1.163-.556c-1.249-.614-2.534-1.242-3.92-1.459l-.16-.021c-.678-.108-1.458-.231-2.202.21-.541.317-.592.75-.57.981.05.708.83 1.271 1.307 1.459.498.202 1.04.245 1.567.289.216.014.426.036.628.065.31.043.628.079.939.108.274.029.548.058.823.094.08.014.202.043.346.072.39.094.896.21 1.365.21l-.007.007Zm.23-.881c-.367.065-1.097-.101-1.4-.174a3.382 3.382 0 0 0-.426-.086c-.282-.036-.57-.065-.852-.094a18.198 18.198 0 0 1-.903-.101c-.216-.03-.447-.05-.678-.072-.462-.036-.939-.073-1.315-.231-.36-.145-.75-.513-.765-.723 0-.05.043-.108.152-.166.483-.281 1.01-.202 1.632-.1l.166.028c1.256.195 2.484.794 3.675 1.38.245.122.484.238.73.353l-.015-.014ZM24.09 77.243c.08 0 .152-.021.224-.064a.427.427 0 0 0 .145-.593 160.891 160.891 0 0 0-2.037-3.263c-.837-1.329-1.71-2.7-2.512-4.066-1.38-2.346-2.788-4.924-4.441-8.123-.6-1.155-1.177-2.325-1.762-3.495l-.628-1.249c-.173-.346-.318-.7-.47-1.054a16.663 16.663 0 0 0-.39-.895 12.006 12.006 0 0 0-.7-1.228c-.224-.36-.433-.693-.606-1.054-.737-1.48-1.343-2.99-2-4.672-.246-.628-.42-1.27-.6-1.957a32.95 32.95 0 0 0-.411-1.444C6.725 40.49 6.414 36.52 6.277 33.457a.445.445 0 0 0-.455-.411.435.435 0 0 0-.411.455c.144 3.119.454 7.17 1.668 10.86.151.462.274.931.397 1.4.18.68.368 1.38.628 2.051.664 1.697 1.278 3.22 2.029 4.737.195.39.426.765.65 1.119.238.39.469.758.65 1.14.13.282.252.571.375.86.152.376.31.744.491 1.112l.621 1.25c.585 1.169 1.162 2.339 1.762 3.501 1.653 3.214 3.076 5.806 4.462 8.167.809 1.379 1.683 2.758 2.527 4.094.686 1.083 1.372 2.159 2.022 3.25.08.136.224.209.368.209l.03-.008Z" fill="#F5BC42"/><path d="M5.858 33.905h.05a.43.43 0 0 0 .369-.34l.065-.317c.31-1.459.6-2.83.592-4.347v-.267c0-.708 0-1.437-.267-2.145-.296-.78-.73-1.696-1.43-1.848-.231-.05-.585-.036-.953.318-.52.498-.585 1.314-.578 2.115v.13c0 .744 0 1.444.174 2.21.353 1.596.996 3.047 1.58 4.26a.43.43 0 0 0 .39.245l.008-.014Zm-.809-8.427h.008c.079.015.368.167.808 1.315.217.556.21 1.177.21 1.834v.274c0 1.098-.16 2.137-.376 3.199-.382-.881-.744-1.856-.967-2.888-.152-.672-.152-1.3-.152-2.022v-.13c0-.354 0-1.177.318-1.488.021-.021.1-.093.159-.093h-.008Zm1.863 17.727a.404.404 0 0 0 .304-.13l.541-.534c.751-.736 1.524-1.495 2.18-2.361.16-.21.333-.404.506-.6.383-.44.78-.895 1.055-1.472.194-.42.613-1.668.23-2.412a.953.953 0 0 0-.707-.527c-1.603-.296-2.52 1.393-3.069 2.411l-.094.18c-.743 1.366-1.14 2.81-1.372 4.976a.437.437 0 0 0 .434.484l-.008-.015Zm3.748-7.213c.065 0 .13 0 .202.022.05.007.072.028.101.072.166.325-.029 1.198-.245 1.653-.217.47-.556.86-.917 1.271-.188.21-.369.419-.542.643-.527.686-1.12 1.3-1.747 1.92.26-1.595.635-2.548 1.104-3.408l.102-.18c.563-1.047 1.14-1.986 1.942-1.986v-.007Z" fill="#F5BC42"/><path d="M7.338 44.678a.427.427 0 0 0 .318-.137.435.435 0 0 0 .058-.527c-.96-1.574-2.087-3.127-3.74-3.813l-.239-.1c-.52-.224-1.09-.448-1.725-.463-.42 0-1.466.246-1.863.896-.188.31-.195.664-.022 1.003.231.448.852.787 1.422 1.069l.506.253c.476.245.96.483 1.444.707.672.304 1.473.477 2.173.628.6.13 1.163.253 1.473.42a.42.42 0 0 0 .203.05l-.008.014Zm-5.307-4.166c.433 0 .896.202 1.35.397l.253.108c1.134.47 1.986 1.43 2.686 2.455-.151-.036-.31-.072-.476-.108-.665-.144-1.408-.303-2-.57a42.38 42.38 0 0 1-1.408-.694l-.47-.238c-.267-.13-.96-.476-1.076-.707-.05-.094-.028-.13-.007-.166.152-.253.794-.47 1.134-.477h.021-.007Zm9.661 14.246c.101 0 .21-.036.289-.108l.202-.18c1.56-1.38 3.704-3.264 4.253-5.503.202-.816-.022-2.534-1.148-2.917-.405-.137-.845-.094-1.278.123-.83.411-1.538 1.43-1.791 2.18-.065.188-.13.362-.195.542-.166.433-.332.874-.404 1.38l-.058.396a25.755 25.755 0 0 0-.303 3.647c0 .173.093.332.252.404a.413.413 0 0 0 .18.044v-.008Zm3.112-7.92a.7.7 0 0 1 .21.035c.512.174.729 1.3.584 1.892-.426 1.733-2.043 3.329-3.43 4.57.058-1.104.167-1.855.26-2.534l.058-.404c.058-.412.202-.787.354-1.191.072-.188.144-.376.21-.57.165-.506.729-1.366 1.35-1.676a.918.918 0 0 1 .404-.108v-.015Z" fill="#F5BC42"/><path d="M11.367 54.802c.152 0 .296-.015.44-.058a.431.431 0 0 0 .173-.736c-.237-.21-.476-.434-.721-.658-1.718-1.581-3.841-3.56-6.47-3.415-.606.029-1.697.375-2.216 1.032-.253.325-.354.7-.282 1.076.116.629.758 1.271 1.913 1.892.773.419 1.567.462 2.383.455h2.311c.462 0 .888.108 1.321.217.405.1.795.195 1.156.195h-.008Zm-6.325-4.008c2.058 0 3.82 1.538 5.394 2.975h-.015c-.462-.115-.974-.245-1.538-.238H6.58c-.736 0-1.372-.03-1.971-.347-1.278-.693-1.452-1.162-1.48-1.292-.015-.08-.022-.21.115-.383.318-.404 1.134-.686 1.581-.708h.217v-.007Zm11.59 13.965a.42.42 0 0 0 .238-.072c1.394-.917 2.758-1.841 4.03-3.12l.28-.274c.586-.578 1.192-1.17 1.56-1.942.304-.629.744-2.044.253-2.896-.159-.267-.476-.6-1.097-.65-2.03-.158-3.38 2.455-4.095 3.863-.086.174-.187.34-.281.506-.224.383-.455.78-.585 1.235-.101.346-.18.693-.26 1.061a19.31 19.31 0 0 1-.448 1.726.432.432 0 0 0 .412.563h-.007Zm5.098-8.094h.1c.268.021.362.13.412.216.246.42.043 1.408-.281 2.087-.304.635-.852 1.177-1.387 1.697l-.289.282c-.924.924-1.906 1.667-2.924 2.36.058-.23.108-.447.152-.656.08-.354.151-.686.245-1.011.101-.354.296-.686.498-1.04.109-.18.21-.361.304-.549.57-1.112 1.74-3.394 3.162-3.394l.008.008Z" fill="#F5BC42"/><path d="M16.631 65.25a.429.429 0 0 0 .253-.78l-.477-.346c-.88-.643-1.798-1.315-2.873-1.748a19.533 19.533 0 0 0-1.242-.44c-.224-.073-.44-.145-.658-.224-.606-.21-1.184-.332-1.797-.455l-.145-.029a6.07 6.07 0 0 1-.541-.144c-.412-.116-.824-.224-1.264-.232-.672.015-1.596.362-2.05 1.011a1.366 1.366 0 0 0-.188 1.293c.296.88 1.624 1.53 2.224 1.704.743.224 1.56.224 2.281.224h.116c.455-.022.902-.022 1.35-.044.405-.021.816-.036 1.22-.043 1.112-.014 2.275.072 3.748.246h.05l-.007.007Zm-8.708-3.524c.296 0 .65.101.997.202.209.058.411.116.606.16l.145.028c.584.116 1.133.231 1.682.426.224.08.448.152.679.224.397.13.794.26 1.184.419.664.267 1.264.635 1.856 1.047a30.88 30.88 0 0 0-2.239-.087c-.419 0-.837.022-1.256.044-.434.021-.86.036-1.307.043h-.116c-.693 0-1.408 0-2.036-.188-.643-.188-1.509-.736-1.646-1.155a.528.528 0 0 1 .08-.513c.266-.375.916-.635 1.357-.642h.021l-.007-.008Z" fill="#F5BC42"/></svg>